# xmcd
#
# Track frame offsets:
#	150
#	17354
#	27918
#	42004
#	53120
#	63465
#	76392
#	87515
#	101303
#	111479
#	122746
#	138050
#	148608
#	162367
#
# Disc length: 2357 seconds
#
# Revision: 1
# Processed by: cddbd v1.5.1PL0 Copyright (c) Steve Scherf et al.
# Submitted via: audiograbber 1.82.02
#
DISCID=b109330e
DTITLE=Milionário and José Rico - De 1977 a 1979
DYEAR=1900
DGENRE=Sertaneja
TTITLE0=Mensagem do Além
TTITLE1=Tudo Passa
TTITLE2=Rei Sem Trono
TTITLE3=Carro Velho
TTITLE4=Grito de Alerta
TTITLE5=Ponto de Vista
TTITLE6=Caminhos da Vida
TTITLE7=Canção de Um Amor Distante (Canto al Paraguay)
TTITLE8=Silêncio da Noite
TTITLE9=Doce Saudade
TTITLE10=Berço de Deus
TTITLE11=Filho de Ninguém
TTITLE12=Apaisonado
TTITLE13=Herança
EXTD=
EXTT0=
EXTT1=
EXTT2=
EXTT3=
EXTT4=
EXTT5=
EXTT6=
EXTT7=
EXTT8=
EXTT9=
EXTT10=
EXTT11=
EXTT12=
EXTT13=
PLAYORDER=
